<svg xmlns="http://www.w3.org/2000/svg" width="350" height="100" viewBox="0 0 350 100"><path d="M81.1,28.89c3.58,2.2,4.79,5,3.79,8.62-.82,3-3.23,5-6.79,5.28-3.91.36-7.84.08-11.77.15-1.07,0-.78-.74-.78-1.3q0-9.89,0-19.78c0-1.72,0-3.45,0-5.16,0-.75.23-1,1-1,3.44.06,6.89,0,10.33.13,3.73.18,6.32,2.1,7.15,5C84.93,24.07,84,26.77,81.1,28.89Z" fill="#4f4f4f"/><path d="M184.4,70.48c0-4.06,0-8.13,0-12.19,0-1,.28-1.22,1.22-1.21q4.46.09,8.91,0c9.21-.16,14.29,6.58,13.27,15.33-.85,7.29-5.66,11.42-13,11.46-3,0-6,0-9,0-1.11,0-1.35-.34-1.34-1.38C184.43,78.52,184.4,74.5,184.4,70.48Z" fill="#4f4f4f"/><path d="M199,43.41,180.57,25.59c-.52.41-.28.92-.28,1.35,0,4.88,0,9.76,0,14.64,0,1.05-.24,1.4-1.35,1.39-3.18,0-3.18,0-3.18-3.13V15.26l18.41,17.52c.49-.4.29-.86.29-1.25,0-4.79,0-9.57,0-14.35,0-1.06.16-1.52,1.38-1.49,3.14.07,3.14,0,3.14,3.16Z" fill="#4f4f4f"/><path d="M270.09,83.89c-1.8,0-3.18,0-4.55,0-.71,0-1-.42-1.39-.85l-7.9-9.11A4.19,4.19,0,0,0,252.6,73c-.57.24-.35.73-.36,1.11,0,2.82-.05,5.64,0,8.46,0,1-.2,1.32-1.25,1.32-3.36,0-3.36,0-3.36-3.34,0-7.32,0-14.64,0-22,0-1.31.38-1.59,1.6-1.54,2.63.09,5.27,0,7.9,0a19.57,19.57,0,0,1,2.3.1,8.18,8.18,0,0,1,6.27,12.37c-.91,1.63-2.13,2.44-5.21,3.36Z" fill="#4f4f4f"/><path d="M124.53,84.31,106.25,66.77c-.45.45-.26,1-.26,1.38,0,4.78,0,9.57,0,14.35,0,1.15-.34,1.44-1.46,1.42-3-.06-3,0-3-3.1V56.65l18.34,17.29a2.06,2.06,0,0,0,.26-1.52c0-4.68,0-9.37,0-14.06,0-1,.28-1.29,1.28-1.28,3.15,0,3.15,0,3.15,3.13v24.1Z" fill="#4f4f4f"/><path d="M116.87,25.2c0,2.63.14,5.27,0,7.89-.46,7.25-5.43,11.21-12.66,10.21-5.39-.74-8.81-4.25-9-9.68-.2-5.64-.07-11.28-.11-16.93,0-.74.23-1,1-1,3.66-.14,3.66-.17,3.66,3.49,0,3.92,0,7.85,0,11.77,0,.76,0,1.53.08,2.29.4,4.58,3.67,6.89,8.14,5.78,2.44-.61,4.06-2.62,4.2-5.69.16-3.53.1-7.07.12-10.61,0-2,0-4,0-6,0-.74.25-1,1-1,3.68-.16,3.68-.18,3.68,3.47v6Z" fill="#4f4f4f"/><path d="M217.55,70.5c0-4.07,0-8.14,0-12.21,0-.93.26-1.22,1.21-1.21,4.7.05,9.39.06,14.09,0,1,0,1.17.37,1.18,1.25,0,2.8,0,2.8-2.77,2.8s-5.37,0-8.05,0c-.88,0-1.18.25-1.14,1.14a35.94,35.94,0,0,1,0,4c-.06,1,.23,1.32,1.27,1.29,2.68-.07,5.36,0,8,0,1,0,1.42.21,1.39,1.33-.06,2.67,0,2.68-2.74,2.68-2.3,0-4.6,0-6.9,0-.82,0-1.08.25-1.06,1.06,0,2.06.07,4.12,0,6.17,0,.92.32,1.12,1.16,1.11,3.17,0,6.33,0,9.49,0,1,0,1.32.24,1.31,1.27,0,2.81,0,2.81-2.76,2.81-4.17,0-8.34,0-12.51,0-1,0-1.22-.29-1.21-1.21C217.57,78.63,217.55,74.56,217.55,70.5Z" fill="#4f4f4f"/><path d="M211.27,29.17c0-4.07,0-8.13,0-12.2,0-1,.29-1.28,1.29-1.27,4.64.05,9.29.06,13.94,0,1.13,0,1.33.38,1.32,1.4-.05,2.73,0,2.73-2.68,2.73s-5.36,0-8.05,0c-.95,0-1.39.18-1.31,1.25a33.53,33.53,0,0,1,0,4c-.06,1,.23,1.34,1.27,1.31,2.77-.06,5.55,0,8.33,0,1,0,1.21.29,1.21,1.22,0,2.85,0,2.85-2.87,2.85-2.25,0-4.5,0-6.75,0-.81,0-1.23.12-1.19,1.08.06,2.1.05,4.21,0,6.31,0,.85.3,1,1.09,1,3.21,0,6.42,0,9.63,0,1,0,1.33.17,1.32,1.24,0,2.92,0,2.92-2.93,2.92-4.08,0-8.15,0-12.22,0-1.17,0-1.42-.37-1.41-1.46C211.3,37.4,211.27,33.28,211.27,29.17Z" fill="#4f4f4f"/><path d="M238.46,36.15a14.83,14.83,0,0,0,7.61,3.09,9.25,9.25,0,0,0,4.24-.51,3,3,0,0,0,2.08-2.68,3.13,3.13,0,0,0-1.58-3.15,29.37,29.37,0,0,0-5.17-2.11A20.93,20.93,0,0,1,241.71,29a7,7,0,0,1-3.41-6.94,6.61,6.61,0,0,1,4.62-6,14.21,14.21,0,0,1,11.81.91c.38.19.75.4.75.94,0,1.32,0,2.64,0,4.19a15,15,0,0,0-6.29-2.73,9.37,9.37,0,0,0-4,.22,3,3,0,0,0-2.43,2.71,2.91,2.91,0,0,0,1.88,3.09c1.8.78,3.66,1.4,5.48,2.13a23.79,23.79,0,0,1,3,1.34c2.9,1.65,4,4.26,3.72,7.49a6.77,6.77,0,0,1-4.77,6.08,15.54,15.54,0,0,1-12.78-1,1.37,1.37,0,0,1-.86-1.47C238.5,38.85,238.46,37.65,238.46,36.15Z" fill="#4f4f4f"/><path d="M266.33,36.16a14.9,14.9,0,0,0,7.5,3.07,10,10,0,0,0,3.7-.28,3.2,3.2,0,0,0,2.68-2.81,3.27,3.27,0,0,0-2-3.49,41.71,41.71,0,0,0-4.94-1.92,21.08,21.08,0,0,1-3.66-1.64,7,7,0,0,1-3.51-6.9,6.61,6.61,0,0,1,4.56-6.06,14.22,14.22,0,0,1,11.93.9,1.18,1.18,0,0,1,.71,1.25c0,1.2,0,2.39,0,3.6-.66.13-1-.39-1.39-.63a11.27,11.27,0,0,0-8.5-1.71,3.14,3.14,0,0,0-2.79,2.69,3,3,0,0,0,2.15,3.35c2.2.92,4.48,1.66,6.7,2.56,2.84,1.15,4.82,3.07,5.21,6.28a7.23,7.23,0,0,1-5.32,8.27,15.85,15.85,0,0,1-12.12-1.13,1.44,1.44,0,0,1-.95-1.56C266.38,38.82,266.33,37.63,266.33,36.16Z" fill="#4f4f4f"/><path d="M144.73,22.21a14,14,0,0,0-6.56-2.82,8.45,8.45,0,0,0-4.11.41,3,3,0,0,0-.42,5.52,39.76,39.76,0,0,0,4.67,1.85c1.07.42,2.17.78,3.2,1.27,3.49,1.67,5,4.28,4.6,8.12-.27,3-2.39,5.37-5.85,6.31a16.12,16.12,0,0,1-11.33-1.16,1.76,1.76,0,0,1-1.21-2c.1-1.08,0-2.17,0-3.28.7,0,1,.46,1.46.72a12.89,12.89,0,0,0,9.06,1.95c2.06-.36,3.18-1.36,3.39-3s-.55-2.87-2.54-3.71c-2.16-.92-4.4-1.63-6.56-2.54-2.78-1.17-4.68-3.08-5-6.28a6.74,6.74,0,0,1,4.05-7.23c4.25-1.89,8.41-1.33,12.46.71a1,1,0,0,1,.66,1C144.72,19.36,144.73,20.64,144.73,22.21Z" fill="#4f4f4f"/><path d="M136.3,77.19a13.83,13.83,0,0,0,9.49,3,6.81,6.81,0,0,0,2.23-.49,3.17,3.17,0,0,0,.54-5.71,18.73,18.73,0,0,0-3.69-1.58,36,36,0,0,1-4.8-1.9,7,7,0,0,1-4-7.19c.25-3.19,2.19-5.15,5.1-6.09a14.41,14.41,0,0,1,11.15,1.06c.42.21.86.42.86,1,0,1.27,0,2.54,0,3.84-.78,0-1.16-.51-1.63-.78a11.19,11.19,0,0,0-8.12-1.58c-1.77.37-2.7,1.27-2.86,2.6-.19,1.59.46,2.69,2.23,3.42,2.13.87,4.32,1.56,6.45,2.42,3.07,1.24,5.11,3.3,5.28,6.82.19,3.85-1.88,6.71-5.88,7.72a16.32,16.32,0,0,1-11.2-1.15,1.67,1.67,0,0,1-1.18-1.86C136.38,79.71,136.3,78.61,136.3,77.19Z" fill="#4f4f4f"/><path d="M158,29.17c0-4.06,0-8.12,0-12.18,0-1,.29-1.3,1.29-1.29,3.4,0,3.4,0,3.4,3.32,0,7.5,0,15,0,22.5,0,1.13-.29,1.47-1.43,1.45C158,42.91,158,43,158,39.78Z" fill="#505050"/><path d="M88.43,70.53c0,4,0,8,0,12,0,.93-.15,1.34-1.23,1.34-3.45,0-3.45,0-3.45-3.42,0-7.27,0-14.54,0-21.8,0-1.19.18-1.68,1.53-1.63,3.15.1,3.15,0,3.15,3.14Z" fill="#505050"/><path d="M171.05,70.68c0,4,0,7.95,0,11.92,0,1-.21,1.32-1.26,1.32-3.37,0-3.37,0-3.37-3.34,0-7.32,0-14.65,0-22,0-1.14.2-1.57,1.46-1.54,3.16.08,3.17,0,3.17,3.13Z" fill="#4f4f4f"/><path d="M70.06,35c0-1,0-2.09,0-3.14,0-.61.2-.85.83-.83,2,0,4-.06,6,.07A3.68,3.68,0,0,1,80.63,35,3.63,3.63,0,0,1,77,38.81c-2,.18-4.1.1-6.15.15-.61,0-.86-.22-.84-.84C70.08,37.07,70.06,36,70.06,35Z" fill="#fefefe"/><path d="M70.06,23.37c0-3.64,0-3.65,3.6-3.63a20.52,20.52,0,0,1,3.14.15,3.28,3.28,0,0,1,3.07,3.37A3.37,3.37,0,0,1,77,26.94a38.83,38.83,0,0,1-6.29.18c-.65,0-.62-.45-.62-.89Z" fill="#fefefe"/><path d="M189,70.4c0-2.72,0-5.44,0-8.16,0-.9.28-1.16,1.14-1.12,1.58.06,3.16,0,4.74,0,4.73.11,7.53,2.59,8.29,7.27a13,13,0,0,1-.22,5.26c-.94,3.8-3.7,6-7.8,6.14-1.67.07-3.35,0-5,0-.9,0-1.15-.26-1.13-1.14C189,75.94,189,73.17,189,70.4Z" fill="#fefefe"/><path d="M252.33,65.06c0-1.29-.5-3,.13-3.75s2.52-.23,3.85-.28a11,11,0,0,1,2.43.16A3.73,3.73,0,0,1,262.07,65a3.69,3.69,0,0,1-3.18,4c-2,.44-4,.11-6,.2-.65,0-.65-.41-.65-.86,0-1.1,0-2.2,0-3.3Z" fill="#fefefe"/></svg>