<svg xmlns="http://www.w3.org/2000/svg" width="350" height="100" viewBox="0 0 350 100"><g opacity="0.8"><path d="M168.6,59.39c-.11-.07-.12-.17-.16-.25-4.86-11.46-9.74-22.9-14.55-34.37a10.24,10.24,0,0,1,2.23-11.72,10.14,10.14,0,0,1,5.72-2.94,10.39,10.39,0,0,1,10.49,4.63,10.91,10.91,0,0,1,1.56,5,19.14,19.14,0,0,1-.29,4.34c-.32,2.24-.63,4.47-.95,6.71s-.66,4.7-1,7.06-.67,4.74-1,7.11l-1,6.7c-.31,2.24-.63,4.47-.94,6.71Z" fill="#464646"/><path d="M181.59,59.38c-.07-.44-.14-.87-.2-1.29q-.79-5.31-1.58-10.61l-1.47-9.85-1.41-9.47a7,7,0,0,1,.09-2.62A3.71,3.71,0,0,1,178.91,23c.46-.26.94-.49,1.41-.75.31-.17.32-.3,0-.51a2.26,2.26,0,0,0-1.36-.37c-.86,0-1.72,0-2.57,0-.24,0-.32-.05-.33-.31A11.57,11.57,0,0,1,177.55,15a10.07,10.07,0,0,1,6.88-4.84A10.54,10.54,0,0,1,197,18.93a10.73,10.73,0,0,1-.72,5.69Q189,41.89,181.74,59.14C181.7,59.22,181.69,59.31,181.59,59.38Z" fill="#6a6a6a"/><path d="M168.4,63.18c-.1,0-.15-.06-.22-.11q-14.76-10.12-29.52-20.26a10.67,10.67,0,0,1-2-16.22,10,10,0,0,1,6.77-3.3c4.3-.37,7.49,1.51,9.76,5.1a22.8,22.8,0,0,1,1.61,3.43q5,11.48,10,23,1.77,4.08,3.56,8.16C168.37,63,168.43,63.09,168.4,63.18Z" fill="#8c8c8c"/><path d="M181.88,63.13a.43.43,0,0,1,.07-.29q7-16.23,13.93-32.45a12.39,12.39,0,0,1,3.79-5.09,9.52,9.52,0,0,1,7.3-1.89,10.06,10.06,0,0,1,5.26,2.19,10.54,10.54,0,0,1,3.93,7.2A10.13,10.13,0,0,1,213.42,41a12.84,12.84,0,0,1-2.27,2l-29,20Z" fill="#686868"/><path d="M169.91,66.75a.46.46,0,0,1-.32.07H136.72a11.08,11.08,0,0,1-6.51-1.92,10.39,10.39,0,0,1-4.5-7.3,11.19,11.19,0,0,1,.34-4.85A10.26,10.26,0,0,1,128.14,49a9.9,9.9,0,0,1,5.53-3.38,10.78,10.78,0,0,1,6.67.74,19.51,19.51,0,0,1,3.52,2.15l7.41,5.17,9.87,6.9,7.92,5.52Z" fill="#b6b6b6"/><path d="M180.38,66.75l.24-.18Q194,57.24,207.35,47.89a12.56,12.56,0,0,1,4.24-2.06A9.78,9.78,0,0,1,220.52,48a10.33,10.33,0,0,1,3.72,6.46,10.91,10.91,0,0,1-5.1,11.12,9.93,9.93,0,0,1-5,1.25H180.66A.38.38,0,0,1,180.38,66.75Z" fill="#737373"/><path d="M169.3,83V72.31c0-.34,0-.34.33-.34,2,0,4,0,6,0,.23,0,.28.06.28.28q0,8.55,0,17.1c0,.23-.06.3-.29.3h-9.22a.45.45,0,0,1-.42-.22q-4-5.37-8-10.75l-.2-.26a.44.44,0,0,0-.05.31V89.28c0,.4.05.37-.37.37-2,0-3.94,0-5.91,0-.24,0-.31-.06-.31-.31q0-8.53,0-17.07c0-.23.05-.3.29-.3,3,0,6,0,9.07,0a.46.46,0,0,1,.42.21l8.18,10.68.15.2Z" fill="#262626"/><path d="M145.53,78h-3.41a.27.27,0,0,1-.3-.21,2.75,2.75,0,0,0-1.59-1.58,7,7,0,0,0-3.39-.49,4.9,4.9,0,0,0-2.78,1,4.82,4.82,0,0,0-1.79,3,5.86,5.86,0,0,0,1.21,5.06,4.25,4.25,0,0,0,2.41,1.46,6.72,6.72,0,0,0,3.82-.19,3.16,3.16,0,0,0,2.14-2.12.16.16,0,0,1,.2-.14H149c.23,0,.29.07.25.3a4.69,4.69,0,0,1-1.29,2.43,10,10,0,0,1-4.29,2.62,19.7,19.7,0,0,1-5.59,1,22.09,22.09,0,0,1-5.9-.45,11.45,11.45,0,0,1-6-3.2,8.28,8.28,0,0,1-2.37-5.27A7,7,0,0,1,125,77a10.48,10.48,0,0,1,5.48-4.32,17.43,17.43,0,0,1,6.07-1,24.23,24.23,0,0,1,7,.85,10.23,10.23,0,0,1,3.88,2,5.16,5.16,0,0,1,1.71,2.74c.15.68.15.68-.54.68Z" fill="#262626"/><path d="M222.55,78h-3.41a.28.28,0,0,1-.31-.22,2.72,2.72,0,0,0-1.6-1.57,7.09,7.09,0,0,0-4.41-.32,4.47,4.47,0,0,0-3.07,2.43,5.63,5.63,0,0,0-.56,1.83,6,6,0,0,0,1,4.27,4.34,4.34,0,0,0,2.6,1.8,6.65,6.65,0,0,0,4.11-.25,3.11,3.11,0,0,0,1.94-2c0-.11.08-.15.18-.14h6.85c.36,0,.38,0,.31.38a4.71,4.71,0,0,1-1.24,2.3,10,10,0,0,1-4.35,2.67,20.5,20.5,0,0,1-6,1,22,22,0,0,1-5.19-.41,12.4,12.4,0,0,1-5.06-2.2,8.62,8.62,0,0,1-3.53-6,6.58,6.58,0,0,1,.77-3.79,10.19,10.19,0,0,1,5.35-4.83,16,16,0,0,1,5.37-1.17,26,26,0,0,1,7.09.5,11.38,11.38,0,0,1,4.69,2,5.33,5.33,0,0,1,2,2.93c0,.18.06.37.09.55s-.05.24-.23.24Z" fill="#262626"/><path d="M198.69,81.49a6.64,6.64,0,0,0-2.34-1.11c-.12,0-.26,0-.35-.12a4.28,4.28,0,0,0,3.26-2.71,3,3,0,0,0-.89-3.66,5.31,5.31,0,0,0-1.43-.85A15,15,0,0,0,191.18,72c-4.26,0-8.51,0-12.76,0-.33,0-.34,0-.34.34v17c0,.35,0,.35.35.35h12.12a29.43,29.43,0,0,0,3.25-.13,11.59,11.59,0,0,0,3.38-.81A4.49,4.49,0,0,0,200.11,85,3.57,3.57,0,0,0,198.69,81.49ZM185,75.64c0-.18.05-.23.23-.23h4.93a2,2,0,0,1,1.19.33,1.17,1.17,0,0,1,0,2,2.19,2.19,0,0,1-1.22.32h-4.88c-.19,0-.24-.06-.24-.25C185,77.09,185,76.36,185,75.64Zm7.16,9.12a2.27,2.27,0,0,1-1.49.66c-1,.08-2,0-3,0h-2.44c-.18,0-.23,0-.23-.23,0-.93,0-1.87,0-2.8,0-.19.07-.23.24-.22h2.74v0c.91,0,1.82,0,2.72,0a2.15,2.15,0,0,1,1.52.66A1.31,1.31,0,0,1,192.13,84.76Z" fill="#262626"/></g></svg>