<svg xmlns="http://www.w3.org/2000/svg" width="350" height="100" viewBox="0 0 350 100"><path d="M229,77.62h-6.65a1.93,1.93,0,0,0-.11-.34l-6.22-11c-.07-.12-.16-.22-.26-.38l-6.61,11.69h-6.33c-.19,0-.39-.05-.59-.05l-7.58,0h-3.49c.14-.26.21-.42.3-.58q1.11-1.93,2.21-3.88,6.41-11.25,12.81-22.51a1,1,0,0,0,0-1.13q-7.56-13.29-15.09-26.6c-.08-.13-.13-.27-.22-.46h.62c5.58,0,11.16,0,16.74,0a.81.81,0,0,1,.83.5q2.67,4.73,5.34,9.42l1.08,1.87.35-.59q3.06-5.37,6.1-10.75a.75.75,0,0,1,.76-.45h16.9c.15,0,.3,0,.5,0l-.27.53Q232.57,36.31,225,49.67a.85.85,0,0,0,0,.68c.28.57.62,1.1.93,1.66q6.72,11.79,13.42,23.6c.35.61.69,1.23,1.07,1.9l-.62,0h-6.49C231.89,77.56,230.46,77.6,229,77.62Z" fill="#4f4f4f"/><path d="M109.57,22.39H144l1,15H126.34v7.23H141.5V59.74H126.3V77.51l-.42,0h-16l-.33,0Z" fill="#4f4f4f"/><path d="M199.43,50A27.64,27.64,0,1,1,171.89,22.4,27.61,27.61,0,0,1,199.43,50Zm-22.78,0h0c0-3.63,0-7.26,0-10.89a7,7,0,0,0-.21-1.72A4.66,4.66,0,0,0,170,34.19,4.94,4.94,0,0,0,167.3,39V58.91c0,.81,0,1.63,0,2.45a4.59,4.59,0,0,0,4.13,4.51,4.75,4.75,0,0,0,5.21-5Z" fill="#4f4f4f"/></svg>