<svg xmlns="http://www.w3.org/2000/svg" width="350" height="100" viewBox="0 0 350 100"><path d="M220.1,81.44c-2.46-.69-5-1.27-7.38-2.08a25.32,25.32,0,0,1-14.5-11.68c0,4-.06,7,0,10.07,0,1.58-.15,2.45-2.14,2.43-9.57-.1-19.14-.08-28.71,0-1.76,0-2.09-.71-2-2.21a35.61,35.61,0,0,0,0-5.75c-.42-3.52.06-6,4.59-5.09,1.81.35,1.6-1.09,1.6-2.2,0-3.61-.33-7.26.07-10.83.76-6.69-6.11-8.51-10.5-6.53-3.62,1.64-5.1,4.62-5.22,8.37-.08,2.71.16,5.44-.07,8.12s.86,3.52,3.32,3.1,3.38.63,3.16,3.15c-.26,3.12,1,7.23-.59,9.17s-6,.59-9.14.64c-6.94.1-13.9-.06-20.84.08-2.17,0-2.75-.62-2.62-2.67a54.6,54.6,0,0,0,0-7.78c-.15-2.11.54-2.95,2.64-2.59,2.9.5,3.7-.75,3.56-3.54-.22-4.61-.15-9.25,0-13.88.06-2.07-.34-3.3-2.73-2.85-2.93.56-3.72-.71-3.46-3.47a53.29,53.29,0,0,0,0-7.79c-.08-1.69.35-2.36,2.24-2.34,7.17.11,14.35.1,21.52,0,1.73,0,2.48.38,2.34,2.24-.15,2.09,0,4.2,0,6.52.61-.2,1-.21,1.16-.4,7.09-8,16.07-9.1,25.78-6.54,7.19,1.89,10.48,6.84,10.59,15,.07,4.86,0,9.71,0,14.57,0,.82-.47,2.08.64,2.35a5.84,5.84,0,0,0,3.66-.11c1.18-.56.14-1.73-.09-2.65-3.66-14.51,4.72-26.95,20-29.54,7.22-1.22,14.41-1.45,21.42,1.3a19.49,19.49,0,0,1,12.28,13.83c.66,2.43,0,3.68-2.53,3.8A102.74,102.74,0,0,0,235.63,55c-1.78.29-2.51-.17-2.63-2.25-.27-4.9-2.85-7.69-6.7-7.9-4.63-.26-7.29,1.92-8.41,7a28.62,28.62,0,0,0,.25,13.05c.78,3.27,3.65,5.37,7.26,5.63a7.49,7.49,0,0,0,7.64-5c.61-2,1.65-2.48,3.61-2.43,4.88.13,9.78,0,14.69,0-1.55,10.28-7.8,16.29-18.15,17.66-.73.1-1.63-.22-2.15.64Z" fill="#4f4f4f"/><path d="M84.06,19.1c13.08,0,26.17.1,39.26-.08,3,0,3.7.86,3.46,3.6a66.17,66.17,0,0,0,0,8.45c.08,1.77-.54,2.26-2.32,2.3-5.52.13-5.52.21-5.52,5.72,0,8.24.09,16.47,0,24.71-.05,2.49.39,3.58,3.26,3.43,4.59-.25,4.6,0,4.6,4.64,0,8.27,0,8.27-8.19,8.27l-34.48-.06V67.21c1.21-1.08,2.73-1,4.2-1,2,0,2.91-.89,2.92-2.86q.06-13,0-26.06c0-2-1-2.86-2.92-2.87-1.47,0-3,0-4.2-1Z" fill="#4f4f4f"/><path d="M84.06,33.33c8.14,0,8.14,0,8.14,7.94,0,7.64-.09,15.29.06,22.93,0,2.42-.76,3.2-3.11,3a50.87,50.87,0,0,0-5.09,0Z" fill="#fefefe"/><path d="M257.57,79.67a7.1,7.1,0,0,1-7.42-7.11c0-3.91,4-8.13,7.62-8a7.93,7.93,0,0,1,7.45,7.74A7.52,7.52,0,0,1,257.57,79.67Z" fill="#4f4f4f"/></svg>