<svg xmlns="http://www.w3.org/2000/svg" width="350" height="100" viewBox="0 0 350 100"><path d="M158.31,15.17V30.83c.32-.34.56-.61.83-.87A9.14,9.14,0,0,1,165,27.38a10,10,0,0,1,6.56,1.56,9.63,9.63,0,0,1,3.86,5.73,15.13,15.13,0,0,1,.51,3.95c0,6,0,12.06,0,18.08,0,.31-.07.4-.39.4h-9.5c-.33,0-.41-.08-.41-.41,0-5.11,0-10.21,0-15.32a7.24,7.24,0,0,0-.24-2.07,3.14,3.14,0,0,0-2.73-2.46A3.45,3.45,0,0,0,159,38.7a5.54,5.54,0,0,0-.6,2.56q0,4.62,0,9.26c0,2.06,0,4.11,0,6.16,0,.33-.07.42-.41.42h-9.46c-.34,0-.43-.09-.43-.43q0-10.44,0-20.88V15.69c0-.17,0-.35,0-.52Z" fill="#212121"/><path d="M79.82,28c3.57,0,7.13,0,10.7,0a.55.55,0,0,1,.62.42q3.15,8.1,6.33,16.19c0,.11.09.23.17.41l.18-.4q3.21-8.13,6.41-16.24a.48.48,0,0,1,.53-.38c3.36,0,6.71,0,10.06,0,.42,0,.42,0,.25.4q-6.22,15-12.47,30.05-1.87,4.49-3.73,9a.53.53,0,0,1-.59.41h-10c-.47,0-.47,0-.29-.43q2.07-4.92,4.16-9.83a.68.68,0,0,0,0-.59Q86.27,43.28,80.44,29.52a7.19,7.19,0,0,0-.62-1.35Z" fill="#212121"/><path d="M270.18,15.24q-.9,2.13-1.79,4.26-4.47,10.77-8.93,21.55a.6.6,0,0,1-.67.45H247.64c-.61,0-.6.07-.36-.5q5.35-12.91,10.7-25.82h11.9C270,15.17,270.11,15.09,270.18,15.24Z" fill="#212121"/><path d="M177,69.61c.14,0,.16-.09.21-.15a5,5,0,0,1,4.65-2,5.39,5.39,0,0,1,5.25,5,13.89,13.89,0,0,1,.11,1.82v9.53c0,.68,0,.55-.54.55-1.69,0-3.39,0-5.08,0-.33,0-.43-.09-.43-.42,0-2.81,0-5.63,0-8.44a3.68,3.68,0,0,0-.24-1.43,1.78,1.78,0,0,0-1.67-1.18,1.89,1.89,0,0,0-1.84.92,3.18,3.18,0,0,0-.43,1.71q0,4.18,0,8.37c0,.35-.07.47-.45.47-1.74,0-3.49,0-5.23,0-.3,0-.39-.09-.39-.38q0-7.86,0-15.73c0-.32.11-.4.41-.4,1.76,0,3.52,0,5.27,0,.3,0,.4.08.39.38C177,68.7,177,69.15,177,69.61Z" fill="#595959"/><path d="M215.93,69.67a7,7,0,0,1,1-1.08,5.6,5.6,0,0,1,9,3.2,8.35,8.35,0,0,1,.23,1.93q0,5.11,0,10.23c0,.33-.1.42-.42.42-1.74,0-3.47,0-5.2,0-.35,0-.45-.1-.44-.44,0-2.79,0-5.58,0-8.37a3.51,3.51,0,0,0-.22-1.47,1.76,1.76,0,0,0-1.66-1.18,1.89,1.89,0,0,0-1.88,1,2.65,2.65,0,0,0-.38,1.28c0,1.67,0,3.34,0,5q0,1.91,0,3.81c0,.3-.09.4-.4.4-1.75,0-3.49,0-5.24,0-.3,0-.41-.06-.41-.38q0-7.87,0-15.73c0-.29.08-.39.38-.39q2.66,0,5.31,0c.29,0,.35.1.36.37A10.12,10.12,0,0,0,215.93,69.67Z" fill="#595959"/><path d="M150.3,78.53c0-1.8,0-3.61,0-5.41,0-.31-.08-.42-.4-.41-.5,0-1,0-1.49,0-.23,0-.34,0-.34-.31,0-1.4,0-2.81,0-4.22,0-.24.09-.33.33-.33.5,0,1,0,1.49,0,.31,0,.42-.09.41-.4a8.35,8.35,0,0,1,.68-3.72,6.35,6.35,0,0,1,5.36-3.82,8.61,8.61,0,0,1,3.74.26.59.59,0,0,1,.51.67c0,1.37,0,2.74,0,4.11,0,.3,0,.4-.37.27A3.67,3.67,0,0,0,158,65.1a2.3,2.3,0,0,0-1.65,2.56c0,.26.22.2.37.2h3.18c.51,0,.51,0,.51.52,0,1.3,0,2.61,0,3.92,0,.33-.1.42-.42.42-1.08,0-2.15,0-3.22,0-.33,0-.42.09-.42.42,0,3.57,0,7.13,0,10.69,0,.54,0,.54-.54.54-1.7,0-3.39,0-5.09,0-.3,0-.38-.1-.38-.39C150.3,82.17,150.3,80.35,150.3,78.53Z" fill="#595959"/><path d="M240.53,71c0,.8,0,1.59,0,2.39,0,.31-.08.34-.34.19a5,5,0,0,0-3.93-.55,3.15,3.15,0,0,0-2.38,3.5,3.27,3.27,0,0,0,2.92,2.85,5.1,5.1,0,0,0,3.37-.72c.09-.06.18-.18.3-.11s.05.2.05.31c0,1.57,0,3.13,0,4.7a.45.45,0,0,1-.29.49c-3.3,1.52-8.17.89-10.71-2.39a8.85,8.85,0,0,1-1.76-6.22,8.25,8.25,0,0,1,2.49-5.56,8.67,8.67,0,0,1,5.28-2.39,9.47,9.47,0,0,1,4.62.64.49.49,0,0,1,.37.55C240.52,69.44,240.53,70.21,240.53,71Z" fill="#595959"/><path d="M243.36,50.93a6.88,6.88,0,0,1,7-6.89,6.56,6.56,0,0,1,6.61,6.78,6.84,6.84,0,0,1-7.05,6.79A6.59,6.59,0,0,1,243.36,50.93Z" fill="#212121"/><path d="M168.48,76.1c0,2.61,0,5.21,0,7.81,0,.37-.11.46-.46.46-1.74,0-3.47,0-5.2,0-.31,0-.41-.08-.41-.4q0-7.86,0-15.72c0-.29.08-.39.38-.39,1.76,0,3.52,0,5.27,0,.35,0,.42.12.42.44Q168.47,72.2,168.48,76.1Z" fill="#595959"/><path d="M165.45,66.36A3.37,3.37,0,0,1,162.06,63a3.39,3.39,0,0,1,6.78,0A3.37,3.37,0,0,1,165.45,66.36Z" fill="#595959"/><path d="M144.36,28H135c-.25,0-.31.09-.3.32,0,.76,0,1.52,0,2.37-.27-.29-.46-.51-.68-.71a5.86,5.86,0,0,0-.71-.61,10.89,10.89,0,0,0-8.7-1.85,12.86,12.86,0,0,0-8.94,6,16.29,16.29,0,0,0-.89,16.65,13.18,13.18,0,0,0,14.07,7.46A8.86,8.86,0,0,0,134.26,55l.48-.54v2.09c0,.58,0,.58.57.58h8.82c.59,0,.54.1.54-.53v-28a1.62,1.62,0,0,1,0-.22C144.7,28.11,144.61,28,144.36,28ZM129,48.57a6,6,0,1,1,6-6A5.91,5.91,0,0,1,129,48.57Z" fill="#212121"/><path d="M241.9,40.19a14.41,14.41,0,0,0-6.08-10,15.92,15.92,0,0,0-13.12-2.42,14.4,14.4,0,0,0-9.87,7.35,15,15,0,0,0-1.69,9.75,14.39,14.39,0,0,0,8.67,11.56,16.15,16.15,0,0,0,9.77,1.13,15,15,0,0,0,12.51-14.77A18.38,18.38,0,0,0,241.9,40.19Zm-15.37,8.25a5.85,5.85,0,1,1,5.79-5.91A5.71,5.71,0,0,1,226.53,48.44Z" fill="#212121"/><path d="M209.18,41.43a10.92,10.92,0,0,0-.12-1.15,14.52,14.52,0,0,0-8.27-11.35,16.06,16.06,0,0,0-10.39-1.27,14.6,14.6,0,0,0-10,6.66A15.18,15.18,0,0,0,178.29,45a14.35,14.35,0,0,0,6.31,10.16,15.9,15.9,0,0,0,11.81,2.47,14.82,14.82,0,0,0,12.78-15C209.19,42.2,209.21,41.81,209.18,41.43Zm-15.53,7a5.85,5.85,0,1,1,5.82-5.78A5.7,5.7,0,0,1,193.65,48.44Z" fill="#212121"/><path d="M207.35,68.27c0-.31-.09-.41-.4-.41-1.71,0-3.42,0-5.12,0-.33,0-.45.09-.43.42s0,.8,0,1.19a8.11,8.11,0,0,0-1.55-1.24,7.12,7.12,0,0,0-8.76,1.71,9.43,9.43,0,0,0-1.28,10.4,7.1,7.1,0,0,0,6.06,4.43,6.12,6.12,0,0,0,4.76-1.34c.25-.21.47-.46.77-.76,0,.49,0,.89,0,1.3s.1.4.4.4c1.72,0,3.44,0,5.16,0,.29,0,.39-.08.39-.37Q207.34,76.13,207.35,68.27Zm-9.19,11.16a3.32,3.32,0,1,1,3.41-3.31A3.32,3.32,0,0,1,198.16,79.43Z" fill="#595959"/><path d="M258.81,74.5a8.28,8.28,0,0,0-3-5.35A8.12,8.12,0,0,0,251,67.44a8.52,8.52,0,0,0-8,3.82,8.87,8.87,0,0,0-1.32,6.44,7.6,7.6,0,0,0,5,6.46,10.81,10.81,0,0,0,7.54,0,7.58,7.58,0,0,0,3.88-3.08c.1-.15.29-.32,0-.45l-4.64-1.78c-.16-.06-.27-.07-.39.08a3.21,3.21,0,0,1-3,1.16A2.81,2.81,0,0,1,247.57,78c-.07-.3,0-.39.31-.39h5.31c1.76,0,3.51,0,5.27,0,.37,0,.47-.13.48-.47A13.38,13.38,0,0,0,258.81,74.5Zm-6.2-.3H248c-.44,0-.47,0-.33-.47A2.55,2.55,0,0,1,250,72a2.69,2.69,0,0,1,3,1.67C253.17,74.19,253.16,74.2,252.61,74.2Z" fill="#595959"/></svg>